<svg viewBox="0 0 320 660" xmlns="http://www.w3.org/2000/svg" font-family="Arial, Helvetica, sans-serif">
  <defs>
    <clipPath id="screen-ac">
      <rect x="8" y="8" width="304" height="644" rx="26"/>
    </clipPath>
  </defs>

  <rect x="0" y="0" width="320" height="660" rx="32" fill="#0B0F1A"/>

  <g clip-path="url(#screen-ac)">
    <rect x="8" y="8" width="304" height="644" fill="#F1F2F5"/>

    <rect x="8" y="8" width="304" height="20" fill="#1E4FB8"/>
    <text x="24" y="22" font-size="10" fill="#FFFFFF">9:41</text>

    <rect x="8" y="28" width="304" height="52" fill="#1E4FB8"/>
    <path d="M 30 54 l 8 -8 M 30 54 l 8 8" stroke="#FFFFFF" stroke-width="2.2" fill="none" stroke-linecap="round"/>
    <text x="50" y="60" font-size="16" font-weight="bold" fill="#FFFFFF">Mi cuenta</text>

    <!-- usuario -->
    <rect x="24" y="96" width="272" height="50" rx="10" fill="#FFFFFF" stroke="#D8DCE4"/>
    <text x="34" y="112" font-size="8" letter-spacing="1" fill="#5C6A82">USUARIO</text>
    <text x="34" y="132" font-size="13" fill="#14203A">jperez</text>

    <!-- correo -->
    <rect x="24" y="154" width="272" height="50" rx="10" fill="#FFFFFF" stroke="#D8DCE4"/>
    <text x="34" y="170" font-size="8" letter-spacing="1" fill="#5C6A82">CORREO</text>
    <text x="34" y="190" font-size="13" fill="#14203A">jperez@comex.mx</text>

    <!-- seccion contraseña -->
    <text x="24" y="234" font-size="9" letter-spacing="1" fill="#5C6A82">CAMBIAR CONTRASEÑA</text>
    <text x="24" y="250" font-size="9.5" fill="#5C6A82">Déjalo en blanco si no quieres cambiarla</text>

    <rect x="24" y="262" width="272" height="46" rx="10" fill="#FFFFFF" stroke="#D8DCE4"/>
    <text x="34" y="278" font-size="8" letter-spacing="1" fill="#5C6A82">NUEVA CONTRASEÑA</text>
    <text x="34" y="297" font-size="13" letter-spacing="2" fill="#9AA5B4">••••••••</text>

    <rect x="24" y="316" width="272" height="46" rx="10" fill="#FFFFFF" stroke="#D8DCE4"/>
    <text x="34" y="332" font-size="8" letter-spacing="1" fill="#5C6A82">CONFIRMAR CONTRASEÑA</text>
    <text x="34" y="351" font-size="13" letter-spacing="2" fill="#9AA5B4">••••••••</text>

    <!-- guardar -->
    <rect x="24" y="380" width="272" height="44" rx="10" fill="#1E4FB8"/>
    <text x="160" y="407" text-anchor="middle" font-size="13" font-weight="bold" fill="#FFFFFF">Guardar cambios</text>
  </g>

  <rect x="4" y="4" width="312" height="652" rx="30" fill="none" stroke="#1a1f2b" stroke-width="4"/>
</svg>
